<svg width="994" height="247" viewBox="0 0 994 247" fill="none" xmlns="http://www.w3.org/2000/svg">
<g clip-path="url(#clip0_630_80)">
<mask id="mask0_630_80" style="mask-type:luminance" maskUnits="userSpaceOnUse" x="94" y="0" width="900" height="244">
<path d="M993.149 0H94.917V243.125H993.149V0Z" fill="white"/>
</mask>
<g mask="url(#mask0_630_80)">
<path d="M352.33 2.0354H312.045V241.167H352.33V2.0354Z" fill="black"/>
<path d="M230.679 166.189L142.48 2.0354H94.9199L224.202 241.079H230.679H270.964V2.0354H230.679V166.189Z" fill="black"/>
<path d="M488.091 146.047H487.292L426.511 2.0354H387.824V241.079H428.108V97.3333H428.907L490.486 241.079H528.375V2.0354H488.091V146.047Z" fill="black"/>
<path d="M674.073 14.4633C667.506 9.76049 660.23 6.21122 652.156 3.72673C644.081 1.24224 636.008 0 627.844 0C619.681 0 611.605 1.24224 603.531 3.72673C595.456 6.21122 588.358 9.76049 581.969 14.4633C575.403 19.4323 570.168 25.5547 566.175 32.9195C562.182 40.2842 560.23 48.8025 560.23 58.4742V184.739C560.23 194.766 562.182 203.462 566.175 210.56C570.079 217.748 575.403 223.693 581.969 228.395C588.269 233.276 595.456 237.002 603.531 239.487C611.517 241.971 619.681 243.214 627.844 243.214C636.008 243.214 644.081 241.971 652.156 239.487C660.142 237.002 667.506 233.364 674.073 228.395C680.372 223.693 685.52 217.748 689.513 210.56C693.506 203.373 695.457 194.766 695.457 184.739V109.495H623.229V139.752H655.173V184.739C655.173 192.992 652.512 199.114 647.099 203.018C641.686 206.922 635.297 208.875 627.932 208.875C620.567 208.875 614.179 206.922 608.766 203.018C603.353 199.114 600.691 192.992 600.691 184.739V58.3855C600.691 50.1334 603.353 44.0109 608.766 40.1067C614.179 36.2025 620.567 34.2504 627.932 34.2504C635.297 34.2504 641.686 36.2025 647.099 40.1067C652.512 44.0109 655.173 50.1334 655.173 58.3855V70.453H695.457V58.3855C695.457 48.8025 693.506 40.2842 689.513 32.8307C685.609 25.466 680.461 19.2548 674.073 14.3745V14.4633Z" fill="black"/>
<path d="M769.283 2.0354H728.998V241.079H849.052V206.828H769.283V2.0354Z" fill="black"/>
<path d="M993.151 34.245V2.0354H873.097V241.079H993.151V206.828H913.381V136.641H982.858V104.432H913.381V34.245H993.151Z" fill="black"/>
</g>
<path d="M84.4476 78.9053L107.594 139.364L171.294 163.393L106.524 184.031L84.4476 246.718L63.2468 185.096L0.0332031 163.393L63.6358 139.364L84.4476 78.9053Z" fill="black"/>
</g>
<defs>
<clipPath id="clip0_630_80">
<rect width="994" height="247" fill="white"/>
</clipPath>
</defs>
</svg>
